<?xml version="1.0" standalone="no"?>
<!DOCTYPE svg PUBLIC "-//W3C//DTD SVG 20010904//EN"
 "http://www.w3.org/TR/2001/REC-SVG-20010904/DTD/svg10.dtd">
<svg version="1.0" xmlns="http://www.w3.org/2000/svg"
 width="1920.000000pt" height="1920.000000pt" viewBox="0 0 1920.000000 1920.000000"
 preserveAspectRatio="xMidYMid meet">

<g transform="translate(288,1632) scale(0.07,-0.07)"
fill="#FFFFFF" stroke="none">
<path d="M7460 17583 c-642 -65 -1142 -530 -1245 -1158 -23 -138 -22 -1351 1
-1418 20 -60 84 -131 148 -165 l51 -27 345 -5 345 -5 3 -300 2 -299 -969 -971
c-860 -861 -975 -980 -1029 -1063 -108 -166 -178 -358 -202 -554 -8 -68 -10
-1299 -8 -4553 3 -4218 4 -4464 21 -4525 68 -253 159 -421 312 -575 135 -137
295 -236 474 -294 182 -60 -82 -56 3891 -56 3973 0 3709 -4 3891 56 302 98
544 308 685 594 60 123 98 244 114 367 8 59 10 1403 8 4548 -3 4262 -4 4468
-22 4540 -45 189 -117 353 -214 489 -44 61 -317 342 -1011 1037 l-951 953 0
306 0 305 328 0 c388 0 395 1 483 89 98 98 94 64 94 801 -1 709 -3 736 -70
938 -160 476 -541 814 -1045 925 -95 21 -98 21 -2245 23 -1182 0 -2166 -1
-2185 -3z m4322 -628 c145 -30 265 -95 373 -200 81 -79 135 -158 172 -248 57
-139 56 -128 60 -624 l4 -463 -2791 0 -2791 0 3 453 c4 427 5 456 26 530 75
271 289 480 558 546 77 19 132 20 2199 20 1793 1 2130 -2 2187 -14z m-304
-2357 l-3 -213 -1875 0 -1875 0 -3 200 c-1 110 0 205 2 212 4 11 368 13 1881
13 l1875 0 -2 -212z m1128 -1780 c1044 -1045 1001 -997 1051 -1171 23 -78 23
-79 23 -840 l0 -762 -4080 0 -4080 0 0 762 c0 761 0 762 23 840 50 174 7 126
1051 1171 l951 952 2055 0 2055 0 951 -952z m1075 -3402 c2 -2 3 -1139 1
-2525 l-2 -2521 -4080 0 -4080 0 -2 2521 c-2 1386 -1 2523 1 2525 6 5 8156 5
8162 0z m1 -5683 c2 -9 1 -255 -2 -547 -6 -605 -2 -579 -95 -716 -63 -94 -158
-168 -265 -207 l-75 -28 -3645 0 -3645 0 -75 28 c-105 38 -202 114 -265 208
-92 136 -89 110 -95 715 -3 292 -4 538 -2 547 3 16 286 17 4082 17 3796 0
4079 -1 4082 -17z"/>
<path d="M7395 8630 c-240 -17 -320 -42 -393 -125 -68 -77 -75 -108 -80 -370
-12 -650 94 -1202 318 -1660 364 -744 1034 -1189 1955 -1301 193 -23 562 -23
750 0 355 44 644 125 930 261 940 447 1424 1380 1403 2705 -4 253 -9 277 -84
360 -55 61 -117 88 -237 105 -689 96 -1416 -34 -1933 -346 -117 -71 -268 -184
-357 -269 -41 -38 -78 -70 -82 -70 -4 0 -37 27 -73 61 -505 463 -1292 704
-2117 649z m475 -620 c1097 -98 1729 -739 1844 -1870 8 -80 16 -194 18 -255
l3 -110 -205 1 c-371 2 -675 67 -969 205 -593 280 -934 857 -1010 1709 -8 91
-15 282 -12 323 1 10 197 9 331 -3z m3791 -95 c-8 -473 -130 -949 -328 -1279
-162 -270 -417 -501 -707 -641 -111 -53 -263 -111 -271 -104 -2 3 -9 70 -15
149 -36 492 -131 877 -306 1238 -35 72 -64 136 -64 141 0 5 44 50 97 101 251
237 597 400 988 465 156 25 256 33 439 31 l169 -1 -2 -100z"/>
</g>
</svg>
