<?xml version="1.0" standalone="no"?>
<!DOCTYPE svg PUBLIC "-//W3C//DTD SVG 20010904//EN"
 "http://www.w3.org/TR/2001/REC-SVG-20010904/DTD/svg10.dtd">
<svg version="1.0" xmlns="http://www.w3.org/2000/svg"
 width="360.000000pt" height="360.000000pt" viewBox="0 0 360.000000 360.000000"
 preserveAspectRatio="xMidYMid meet">

<g transform="translate(0.000000,360.000000) scale(0.100000,-0.100000)"
fill="#000000" stroke="none">
<path d="M1642 3150 c-388 -49 -729 -254 -956 -574 -267 -374 -321 -890 -137
-1316 145 -336 416 -600 749 -731 58 -22 155 -53 216 -67 98 -23 132 -26 286
-26 155 0 188 3 290 27 365 85 656 286 852 586 248 381 290 860 113 1281 -105
247 -282 459 -510 609 -67 44 -235 124 -315 150 -176 57 -418 82 -588 61z
m393 -185 c310 -63 589 -251 759 -510 136 -207 198 -415 198 -660 1 -539 -361
-1015 -874 -1150 -419 -110 -845 0 -1149 296 -171 167 -285 378 -341 634 -20
95 -17 372 6 470 118 504 512 865 1021 934 94 13 282 6 380 -14z"/>
<path d="M1944 2656 c-42 -19 -773 -751 -790 -793 -19 -45 -17 -100 5 -148 26
-56 732 -758 783 -780 66 -27 142 -12 196 38 52 48 67 129 38 198 -9 20 -136
155 -310 329 l-296 295 294 295 c162 162 301 309 310 327 31 62 12 158 -41
205 -49 44 -131 59 -189 34z"/>
</g>
</svg>
