<?xml version="1.0" standalone="no"?>
<!DOCTYPE svg PUBLIC "-//W3C//DTD SVG 20010904//EN"
 "http://www.w3.org/TR/2001/REC-SVG-20010904/DTD/svg10.dtd">
<svg version="1.0" xmlns="http://www.w3.org/2000/svg"
 width="860.000000pt" height="900.000000pt" viewBox="0 0 860.000000 900.000000"
 preserveAspectRatio="xMidYMid meet">

<g transform="translate(0.000000,900.000000) scale(0.100000,-0.100000)"
fill="#000000" stroke="none">
<path d="M1540 8286 l0 -304 -227 -4 c-189 -4 -241 -9 -304 -26 -182 -49 -316
-129 -446 -266 -97 -102 -148 -180 -194 -301 -63 -163 -60 46 -57 -3130 3
-2738 4 -2903 21 -2959 109 -364 381 -614 739 -681 74 -14 419 -15 3268 -13
l3185 3 77 22 c335 96 583 345 671 676 l22 82 0 2905 0 2905 -23 85 c-87 328
-343 584 -670 671 -63 17 -118 22 -304 26 l-228 5 0 304 0 304 -303 0 -304 0
-7 -148 c-3 -81 -3 -207 0 -278 4 -72 4 -143 0 -157 l-6 -27 -2150 0 -2150 0
0 305 0 305 -305 0 -305 0 0 -304z m0 -1231 l0 -305 305 0 305 0 0 305 0 305
2153 0 2154 0 -1 -305 -1 -305 307 0 308 0 0 305 0 305 185 0 c213 0 264 -12
334 -80 94 -92 100 -133 97 -730 l-3 -415 -3382 -3 -3382 -2 3 502 c3 487 4
504 24 549 31 67 78 114 146 149 l61 30 194 0 193 0 0 -305z m6143 -1637 c3
-57 4 -967 3 -2023 -2 -1411 -6 -1931 -14 -1960 -27 -96 -111 -179 -206 -207
-31 -9 -813 -12 -3171 -12 l-3130 0 -63 28 c-70 32 -123 85 -156 155 l-21 46
-3 2038 -2 2037 3379 0 3378 0 6 -102z"/>
<path d="M2770 4595 l0 -305 305 0 305 0 0 305 0 305 -305 0 -305 0 0 -305z"/>
<path d="M4000 4595 l0 -305 305 0 305 0 0 305 0 305 -305 0 -305 0 0 -305z"/>
<path d="M5230 4595 l0 -305 305 0 305 0 0 305 0 305 -305 0 -305 0 0 -305z"/>
<path d="M6458 4848 c-1 -29 -2 -167 -2 -305 l-1 -253 308 0 307 0 0 305 0
305 -305 0 -305 0 -2 -52z"/>
<path d="M1540 3365 l0 -305 305 0 305 0 0 305 0 305 -305 0 -305 0 0 -305z"/>
<path d="M2770 3365 l0 -305 305 0 305 0 0 305 0 305 -305 0 -305 0 0 -305z"/>
<path d="M4000 3365 l0 -305 305 0 305 0 0 305 0 305 -305 0 -305 0 0 -305z"/>
<path d="M5230 3365 l0 -305 305 0 305 0 0 305 0 305 -305 0 -305 0 0 -305z"/>
<path d="M6458 3633 c-1 -21 -2 -158 -2 -305 l-1 -268 307 0 308 0 0 305 0
305 -305 0 -305 0 -2 -37z"/>
<path d="M1540 2138 l0 -308 305 0 305 0 0 305 0 305 -77 2 c-43 1 -180 2
-305 3 l-228 0 0 -307z"/>
<path d="M2770 2138 l0 -308 305 0 305 0 0 305 0 305 -92 2 c-51 2 -189 3
-305 3 l-213 0 0 -307z"/>
<path d="M4103 2443 l-103 -4 0 -304 0 -305 305 0 305 0 0 308 0 307 -203 1
c-111 0 -248 -1 -304 -3z"/>
</g>
</svg>
