<?xml version="1.0" standalone="no"?>
<!DOCTYPE svg PUBLIC "-//W3C//DTD SVG 20010904//EN"
 "http://www.w3.org/TR/2001/REC-SVG-20010904/DTD/svg10.dtd">
<svg version="1.0" xmlns="http://www.w3.org/2000/svg"
 width="200.000000pt" height="200.000000pt" viewBox="0 0 200.000000 200.000000"
 preserveAspectRatio="xMidYMid meet">

<g transform="translate(0.000000,200.000000) scale(0.100000,-0.100000)"
fill="#000000" stroke="none">
<path d="M515 1986 c-81 -36 -117 -133 -79 -209 9 -18 183 -200 387 -404 l372
-373 -372 -372 c-204 -205 -379 -388 -388 -407 -32 -64 -8 -145 57 -194 36
-27 107 -33 149 -13 20 9 234 216 481 464 484 484 470 468 453 559 -6 33 -62
94 -453 485 -245 246 -461 455 -478 463 -39 18 -89 19 -129 1z"/>
</g>
</svg>
