<?xml version="1.0" standalone="no"?>
<!DOCTYPE svg PUBLIC "-//W3C//DTD SVG 20010904//EN"
 "http://www.w3.org/TR/2001/REC-SVG-20010904/DTD/svg10.dtd">
<svg version="1.0" xmlns="http://www.w3.org/2000/svg"
 width="800.000000pt" height="914.000000pt" viewBox="0 0 800.000000 914.000000"
 preserveAspectRatio="xMidYMid meet">

<g transform="translate(0.000000,914.000000) scale(0.100000,-0.100000)"
fill="#000000" stroke="none">
<path d="M3590 9130 c-185 -10 -347 -25 -570 -51 -1132 -134 -2150 -544 -2663
-1073 -210 -217 -323 -431 -347 -663 -7 -67 -10 -978 -7 -2848 3 -3050 -3
-2791 69 -2981 64 -169 162 -312 323 -470 240 -236 564 -433 983 -598 591
-233 1238 -368 2052 -428 224 -16 920 -16 1145 0 482 36 865 92 1275 187 372
86 796 233 1073 371 536 268 889 604 1015 964 61 174 57 -16 57 3035 0 2623
-1 2804 -17 2867 -77 297 -298 582 -642 826 -653 465 -1641 769 -2766 852
-195 15 -788 21 -980 10z m840 -540 c354 -20 731 -65 1015 -121 971 -191 1688
-557 1895 -966 32 -64 60 -172 60 -233 0 -95 -54 -235 -130 -335 -40 -54 -158
-172 -225 -226 -88 -70 -255 -172 -409 -248 -891 -440 -2285 -613 -3631 -450
-760 91 -1485 320 -1913 602 -125 83 -159 110 -265 215 -270 265 -296 547 -75
813 282 339 838 610 1618 788 383 87 768 137 1260 164 143 8 635 6 800 -3z
m-3805 -2280 c42 -35 184 -128 295 -192 589 -341 1389 -578 2235 -662 595 -59
1058 -61 1645 -5 596 56 1198 193 1687 384 304 119 615 281 823 428 l105 74 3
-610 2 -610 -52 -61 c-358 -418 -1084 -750 -2033 -930 -379 -72 -844 -110
-1330 -110 -540 0 -993 41 -1435 130 -904 182 -1589 504 -1938 910 l-52 61 0
612 c0 487 3 611 13 605 6 -4 21 -15 32 -24z m40 -1830 c332 -256 879 -500
1445 -644 420 -108 746 -161 1280 -208 196 -18 1035 -18 1225 0 495 45 744 83
1119 168 643 146 1261 414 1631 706 l50 40 3 -567 2 -568 -27 -36 c-141 -187
-435 -401 -763 -558 -527 -252 -1162 -410 -1960 -490 -256 -25 -1078 -25
-1335 0 -778 78 -1388 225 -1890 457 -49 23 -109 50 -133 61 -52 24 -217 119
-292 168 -155 101 -321 244 -395 342 l-45 57 0 567 c0 450 3 565 13 559 6 -5
39 -29 72 -54z m155 -1822 c366 -238 853 -433 1412 -568 760 -182 1677 -242
2518 -165 203 19 612 77 780 111 725 147 1365 404 1783 715 l107 79 0 -513 c0
-539 -1 -551 -47 -657 -27 -61 -132 -198 -196 -256 -439 -396 -1223 -684
-2187 -803 -370 -46 -526 -55 -985 -55 -470 -1 -636 9 -1030 59 -942 121
-1719 409 -2153 800 -72 65 -176 206 -209 285 l-28 65 -3 538 -3 538 93 -69
c51 -37 118 -84 148 -104z"/>
<path d="M6623 5509 c-196 -38 -279 -270 -153 -429 18 -22 55 -51 88 -67 228
-112 465 128 351 356 -55 109 -166 164 -286 140z"/>
<path d="M6605 3749 c-61 -14 -135 -75 -168 -139 -24 -48 -27 -64 -24 -125 3
-80 22 -125 73 -179 51 -54 105 -76 189 -76 114 0 193 50 240 152 36 77 34
147 -6 227 -34 68 -73 103 -149 132 -54 20 -91 22 -155 8z"/>
<path d="M6593 1986 c-57 -19 -118 -69 -151 -124 -23 -41 -27 -58 -27 -127 0
-92 16 -132 72 -189 134 -133 349 -94 429 79 57 122 6 273 -115 339 -63 34
-146 43 -208 22z"/>
</g>
</svg>
