<?xml version="1.0" encoding="UTF-8"?>
<svg version="1.1" xmlns="http://www.w3.org/2000/svg" width="512" height="512">
<path d="M0 0 C1.23013824 -0.00428513 2.46027649 -0.00857025 3.72769165 -0.01298523 C6.32138455 -0.01871034 8.91509349 -0.01924225 11.50878906 -0.01489258 C15.45666154 -0.01173467 19.4037826 -0.03520906 23.3515625 -0.06054688 C25.8802074 -0.06282039 28.40885429 -0.06352312 30.9375 -0.0625 C32.10759613 -0.07170975 33.27769226 -0.08091949 34.48324585 -0.09040833 C42.59116239 -0.04509858 50.81999848 0.54308289 57.5390625 5.55078125 C64.15970024 12.65585589 64.27346203 21.5403057 64.1640625 30.73828125 C64.15955078 31.46982422 64.15503906 32.20136719 64.15039062 32.95507812 C64.13874398 34.73701544 64.12081441 36.51890988 64.1015625 38.30078125 C65.05757355 38.29411942 65.05757355 38.29411942 66.03289795 38.287323 C72.71738422 38.24278355 79.40182775 38.21278879 86.08642578 38.19091797 C88.57505 38.18091312 91.06366262 38.16730503 93.55224609 38.14990234 C97.14683917 38.12541013 100.74127567 38.11424261 104.3359375 38.10546875 C105.43331238 38.09514618 106.53068726 38.08482361 107.66131592 38.07418823 C126.89578913 38.0714476 126.89578913 38.0714476 132.7265625 42.67578125 C137.01220447 47.41254342 137.41880945 51.0740067 137.4375 57.35546875 C137.4474852 58.52422043 137.4474852 58.52422043 137.45767212 59.71658325 C137.46777991 61.36230109 137.47248972 63.00805975 137.47216797 64.65380859 C137.47653592 67.16052448 137.51285767 69.66547103 137.55078125 72.171875 C137.55665106 73.7747336 137.56061935 75.37760051 137.5625 76.98046875 C137.57687103 77.72440887 137.59124207 78.468349 137.60604858 79.23483276 C137.56098999 84.41480067 136.36361481 87.31316898 133.1015625 91.30078125 C128.7942375 94.84235958 125.5611893 95.64821047 120.1015625 96.30078125 C120.10432788 97.19346647 120.10709326 98.0861517 120.10994244 99.00588799 C120.17625802 120.74862433 120.22587022 142.4913432 120.25699902 164.23415947 C120.27245362 174.74891675 120.29351626 185.26360643 120.32788086 195.77832031 C120.35782627 204.94525706 120.37714772 214.11214484 120.38382798 223.27912915 C120.38773153 228.13087918 120.39687609 232.98248914 120.41875267 237.83419418 C120.43919907 242.40599862 120.44537988 246.97760601 120.44088554 251.54945183 C120.44170711 253.22232193 120.44762401 254.895199 120.45917892 256.5680294 C120.55870616 271.72748899 118.32327057 282.74238446 107.7265625 294.11328125 C97.83538889 303.46336222 85.20868903 303.60121673 72.2734375 303.55957031 C70.90889297 303.56228629 69.5443499 303.5658506 68.17980957 303.57019043 C64.50212451 303.57924466 60.82455268 303.57579919 57.14686584 303.56943226 C53.2811759 303.56433593 49.41549505 303.56907374 45.54980469 303.57220459 C39.06052934 303.57583371 32.57129965 303.5710729 26.08203125 303.56152344 C18.60093399 303.55064092 11.11994578 303.55416724 3.63885117 303.56517625 C-2.80732271 303.57427925 -9.25346394 303.57551971 -15.69964218 303.57029891 C-19.5395664 303.56719573 -23.37943951 303.56672409 -27.21936035 303.57337189 C-30.83098912 303.57918876 -34.44247855 303.57506987 -38.05409241 303.56358337 C-39.99630548 303.55971762 -41.93853046 303.56558524 -43.8807373 303.57183838 C-56.52339717 303.51127474 -67.41889696 301.85320956 -77.23046875 293.2578125 C-89.83290023 280.04747152 -89.2104219 261.60491236 -89.12548828 244.45141602 C-89.12492248 242.82360847 -89.12524402 241.19580042 -89.12637329 239.56799316 C-89.12694121 235.19913998 -89.11527896 230.83039925 -89.10122538 226.46157193 C-89.08862333 221.87721421 -89.08754012 217.2928532 -89.08517456 212.70848083 C-89.07898739 204.04975183 -89.06261442 195.39107403 -89.04247558 186.73236746 C-89.02003 176.86522544 -89.00910149 166.99808082 -88.99908471 157.13091958 C-88.97824539 136.85417835 -88.94312382 116.57748304 -88.8984375 96.30078125 C-90.17364258 96.15382813 -91.44884766 96.006875 -92.76269531 95.85546875 C-97.67415901 95.28947748 -100.4223954 93.80898057 -103.8984375 90.30078125 C-108.05208825 83.75039663 -108.4635283 77.44190128 -108.2734375 69.86328125 C-108.27214844 68.89068359 -108.27085937 67.91808594 -108.26953125 66.91601562 C-108.07366923 50.62682421 -108.07366923 50.62682421 -103.6484375 44.86328125 C-98.00753976 39.60699017 -92.5251558 38.17123698 -85.02832031 38.18725586 C-83.84739807 38.18733139 -82.66647583 38.18740692 -81.44976807 38.18748474 C-80.17986023 38.19264603 -78.90995239 38.19780731 -77.6015625 38.203125 C-76.29765564 38.20453995 -74.99374878 38.2059549 -73.65032959 38.20741272 C-70.19140695 38.21122258 -66.73252659 38.22103974 -63.27362061 38.2321167 C-59.74101331 38.24236379 -56.20839914 38.2469174 -52.67578125 38.25195312 C-45.74998268 38.26266343 -38.82421212 38.27972141 -31.8984375 38.30078125 C-31.9298584 37.31851563 -31.9298584 37.31851563 -31.96191406 36.31640625 C-32.04574133 33.31135797 -32.09730645 30.30655661 -32.1484375 27.30078125 C-32.18195313 26.27082031 -32.21546875 25.24085938 -32.25 24.1796875 C-32.33235588 17.71475073 -31.81000712 12.61786949 -27.8984375 7.30078125 C-20.00656522 -0.20646073 -10.33178001 -0.00801985 0 0 Z M-1.1484375 20.55078125 C-2.14359375 20.5971875 -3.13875 20.64359375 -4.1640625 20.69140625 C-7.61878188 21.46131514 -9.37744379 22.85130509 -11.8984375 25.30078125 C-13.42548378 29.3548738 -13.42548378 29.3548738 -12.8984375 38.30078125 C5.2515625 38.30078125 23.4015625 38.30078125 42.1015625 38.30078125 C43.04480472 28.26546079 43.04480472 28.26546079 40.2265625 24.17578125 C31.62367596 16.58499901 9.95167762 20.02340021 -1.1484375 20.55078125 Z M-86.8984375 64.30078125 C-88.2244231 66.67961614 -88.2244231 66.67961614 -87.8984375 69.30078125 C-85.23726534 73.40501529 -85.23726534 73.40501529 -81.20101738 75.96345806 C-77.88412831 76.44937545 -74.58902065 76.44880444 -71.24465942 76.44795227 C-70.08207054 76.4534673 -70.08207054 76.4534673 -68.89599502 76.45909375 C-66.29670481 76.47011434 -63.69745459 76.47397162 -61.09814453 76.4777832 C-59.23539096 76.48404893 -57.37263865 76.49069583 -55.5098877 76.49769592 C-49.39201729 76.51872035 -43.27414668 76.5290947 -37.15625 76.5390625 C-35.05015932 76.54311023 -32.94406877 76.54722716 -30.83797836 76.55141258 C-20.94628424 76.57045827 -11.05459757 76.58469234 -1.16288865 76.59302455 C10.25870098 76.60280432 21.6800972 76.62914579 33.10161865 76.66952544 C41.92889792 76.69966393 50.75612166 76.71449115 59.58345139 76.71780556 C64.85646086 76.72015804 70.12926354 76.72914469 75.40221786 76.75426674 C80.36151818 76.77751367 85.32047503 76.78179429 90.27981567 76.77150536 C92.09950018 76.77100911 93.91920142 76.77735558 95.73883438 76.7910614 C98.22424142 76.8087342 100.70840953 76.80169764 103.19381714 76.78852844 C103.91289179 76.79949769 104.63196644 76.81046693 105.37283123 76.82176858 C110.37911931 76.75777805 113.27883259 75.50070558 117.1015625 72.30078125 C118.41868475 68.65932562 118.45649328 67.08162896 116.8515625 63.55078125 C115.12791481 61.08996274 115.12791481 61.08996274 112.1015625 59.30078125 C109.5022569 59.10107909 107.00944201 59.01817199 104.40945435 59.02662659 C103.61820974 59.02138991 102.82696514 59.01615323 102.01174343 59.01075786 C99.35169105 58.99571666 96.69183032 58.99505181 94.03173828 58.99438477 C92.1280993 58.98676607 90.22446341 58.97833907 88.3208313 58.96916199 C83.1431465 58.94718204 77.96552077 58.93841344 72.78779459 58.93333554 C69.55462725 58.92969623 66.32147548 58.92345841 63.08831406 58.91633415 C51.81358915 58.89182792 40.53891033 58.87878513 29.26416016 58.87524414 C18.74686078 58.87160752 8.22985301 58.84170599 -2.28735721 58.79983956 C-11.31078594 58.76517596 -20.33411785 58.74969638 -29.35761273 58.74899811 C-34.74968832 58.74820398 -40.14146703 58.7394029 -45.53347397 58.71100044 C-50.60445175 58.68488705 -55.67488507 58.68257694 -60.7458992 58.69865608 C-62.60792983 58.70047592 -64.46999128 58.69373183 -66.33195496 58.67783737 C-68.87273977 58.65746913 -71.41160299 58.66787264 -73.95236206 58.68605042 C-74.69059546 58.67285045 -75.42882887 58.65965048 -76.18943298 58.64605051 C-81.46677906 58.73239021 -83.65835034 60.21657963 -86.8984375 64.30078125 Z M-68.8984375 96.30078125 C-68.98584059 126.67576957 -68.98584059 126.67576957 -69.04492188 157.05078125 C-69.062723 169.4375379 -69.08365036 181.82423333 -69.12475586 194.2109375 C-69.15467843 203.23209381 -69.17401732 212.25320045 -69.18070298 221.274405 C-69.18461039 226.05007991 -69.19377962 230.82561274 -69.21562767 235.60124207 C-69.23603793 240.09917131 -69.24226212 244.59690037 -69.23776054 249.09487152 C-69.23858371 250.74278095 -69.24452229 252.3906973 -69.25605392 254.03856659 C-69.76737215 267.12752893 -69.76737215 267.12752893 -63.9609375 278.359375 C-63.2803125 278.81441406 -62.5996875 279.26945313 -61.8984375 279.73828125 C-60.8775 280.44791016 -60.8775 280.44791016 -59.8359375 281.171875 C-56.25672122 283.25734577 -53.33296661 283.43094475 -49.27656555 283.44795227 C-47.52074913 283.45868523 -47.52074913 283.45868523 -45.72946167 283.46963501 C-43.80083786 283.47366837 -43.80083786 283.47366837 -41.83325195 283.4777832 C-40.46649503 283.48404927 -39.09973981 283.4906962 -37.73298645 283.49769592 C-33.24257592 283.51872498 -28.75216511 283.52909851 -24.26171875 283.5390625 C-22.71442332 283.54311075 -21.16712806 283.54722769 -19.61983299 283.55141258 C-12.34868998 283.57046321 -5.07755709 283.58469344 2.19360608 283.59302455 C10.57870037 283.60279121 18.96353027 283.62909614 27.34853142 283.66952544 C33.83444046 283.69972142 40.32027388 283.71449679 46.80625182 283.71780556 C50.67761678 283.72015247 54.54869927 283.72906532 58.41998863 283.75426674 C62.065256 283.77761317 65.71005624 283.78175469 69.3553791 283.77150536 C71.32194148 283.77077694 73.28848048 283.78982278 75.25494385 283.80957031 C82.34954801 283.76798511 87.08855286 283.1685223 93.1015625 279.30078125 C94.98092049 277.41799814 94.98092049 277.41799814 96.0390625 275.30078125 C96.41933594 274.64078125 96.79960937 273.98078125 97.19140625 273.30078125 C99.16177312 268.97104804 99.22529178 265.06752257 99.22181702 260.32794189 C99.22267144 259.62623674 99.22352587 258.92453159 99.22440618 258.20156264 C99.226053 255.85082046 99.22055267 253.50014967 99.21508789 251.14941406 C99.21480582 249.46411643 99.21496414 247.77881868 99.2155304 246.09352112 C99.2158176 241.5174469 99.2099333 236.94139883 99.20295644 232.3653307 C99.19671009 227.58337855 99.19611808 222.80142581 99.19493103 218.01947021 C99.1918215 208.9637348 99.18361319 199.90801144 99.17358154 190.85228133 C99.16032 178.61556708 99.15491744 166.37884953 99.14907932 154.1421299 C99.13967307 134.86167132 99.11975161 115.58123818 99.1015625 96.30078125 C43.6615625 96.30078125 -11.7784375 96.30078125 -68.8984375 96.30078125 Z " fill="#000000" transform="translate(241.8984375,103.69921875)"/>
<path d="M0 0 C3.03899576 0.76387054 4.40211296 1.97915562 6.16015625 4.54296875 C7.1116745 7.52889406 7.29148715 10.25733646 7.30732727 13.38069153 C7.31448257 14.35211594 7.32163788 15.32354034 7.32901001 16.32440186 C7.33304337 17.91336273 7.33304337 17.91336273 7.3371582 19.53442383 C7.3437294 20.65517807 7.3503006 21.77593231 7.35707092 22.9306488 C7.37678953 26.64126655 7.38846237 30.35184388 7.3984375 34.0625 C7.40251303 35.32987188 7.40658855 36.59724377 7.41078758 37.90302086 C7.4294914 43.91781143 7.44405977 49.93257754 7.45239955 55.94738942 C7.46217077 62.87905546 7.4884929 69.81040207 7.52890044 76.74195558 C7.56274588 82.75514425 7.57454822 88.76817827 7.57860374 94.78146935 C7.58347633 97.33513241 7.59510931 99.88879189 7.61364174 102.44239235 C7.63797013 106.01629758 7.63707929 109.58936752 7.63012695 113.16333008 C7.64293701 114.21656464 7.65574707 115.26979919 7.66894531 116.35494995 C7.62456135 122.6182386 6.90253213 126.4511587 3.16015625 131.54296875 C-0.05092262 133.14850819 -3.35655103 133.01765931 -6.83984375 132.54296875 C-10.02484824 130.74274882 -11.4383217 129.4185306 -12.96122742 126.09767151 C-14.18947233 121.12844273 -14.07986048 116.39189179 -14.02270508 111.29272461 C-14.01806244 110.16846573 -14.0134198 109.04420685 -14.00863647 107.88587952 C-13.99028261 104.17637439 -13.95675534 100.46719652 -13.921875 96.7578125 C-13.90331306 94.17762073 -13.88522792 91.59742549 -13.86759949 89.01722717 C-13.82811704 83.61288036 -13.78090273 78.20867598 -13.72827148 72.80444336 C-13.66767817 66.56286967 -13.62546537 60.32136131 -13.59224683 54.07958692 C-13.5595024 48.06519618 -13.51027779 42.05106398 -13.45453453 36.03683662 C-13.43281046 33.481578 -13.41573129 30.92627554 -13.40336037 28.37095451 C-13.38435139 24.80161302 -13.34657525 21.23294535 -13.30395508 17.66381836 C-13.30224808 16.60653534 -13.30054108 15.54925232 -13.29878235 14.45993042 C-13.15532375 5.40110996 -13.15532375 5.40110996 -9.83984375 1.54296875 C-6.06979501 -0.97039708 -4.32770363 -0.5981379 0 0 Z " fill="#000000" transform="translate(259.83984375,237.45703125)"/>
<path d="M0 0 C0.76441406 0.07605469 1.52882813 0.15210938 2.31640625 0.23046875 C4.85224463 0.92630654 5.82492428 1.75879414 7.4375 3.8125 C8.41009448 6.73028345 8.56969653 8.6126175 8.58467102 11.65058899 C8.59182632 12.64732635 8.59898163 13.64406372 8.60635376 14.67100525 C8.61038712 16.30979393 8.61038712 16.30979393 8.61450195 17.98168945 C8.62107315 19.13316467 8.62764435 20.28463989 8.63441467 21.4710083 C8.65415851 25.28926658 8.66581192 29.10748553 8.67578125 32.92578125 C8.67985678 34.22841604 8.6839323 35.53105083 8.68813133 36.87315941 C8.70717653 43.05506832 8.72140927 49.23696533 8.7297433 55.41889793 C8.73951532 62.54924176 8.76583629 69.67927513 8.80624419 76.80950958 C8.83642443 82.32469516 8.85121394 87.83979183 8.85452431 93.35505837 C8.85687256 96.6473653 8.86778137 99.93926476 8.89098549 103.23150063 C8.91527871 106.90629557 8.91442943 110.58027664 8.9074707 114.25512695 C8.92028076 115.34158005 8.93309082 116.42803314 8.94628906 117.54740906 C8.90449609 123.59741983 8.53786098 127.23367052 4.4375 131.8125 C1.22055636 133.42097182 -2.08387222 133.42559149 -5.5625 132.8125 C-8.25355198 130.63675584 -10.01782928 128.90184144 -11.5625 125.8125 C-11.66135365 124.24005404 -11.69754998 122.66347735 -11.70294189 121.0879364 C-11.70865204 120.09112854 -11.71436218 119.09432068 -11.72024536 118.06730652 C-11.72136322 116.96961441 -11.72248108 115.8719223 -11.72363281 114.7409668 C-11.72859772 113.58803131 -11.73356262 112.43509583 -11.73867798 111.2472229 C-11.75332826 107.41871553 -11.76010646 103.59024959 -11.765625 99.76171875 C-11.76992195 97.77873011 -11.7742194 95.79574148 -11.7785995 93.81275302 C-11.79041602 88.28570323 -11.79794969 82.75866351 -11.8013947 77.23160237 C-11.80587402 70.0843151 -11.82341491 62.93721921 -11.8523953 55.78999013 C-11.8740179 50.26549726 -11.88409931 44.7410582 -11.88543582 39.21652347 C-11.88648359 35.91704182 -11.89383057 32.61778097 -11.91025543 29.31833458 C-11.92727668 25.6361472 -11.92544493 21.95442736 -11.91894531 18.2722168 C-11.9281601 17.18059738 -11.93737488 16.08897797 -11.9468689 14.96427917 C-11.89559526 5.70906407 -11.89559526 5.70906407 -8.5625 1.8125 C-5.6266893 -0.23111361 -3.50783351 -0.40954401 0 0 Z " fill="#000000" transform="translate(305.5625,237.1875)"/>
<path d="M0 0 C1.12535156 -0.04640625 1.12535156 -0.04640625 2.2734375 -0.09375 C6.03786115 0.85673571 7.29279901 2.38708665 9.625 5.5 C10.37811206 9.38982315 10.29754287 13.23587704 10.25610352 17.1875 C10.26325882 18.37013428 10.27041412 19.55276855 10.27778625 20.77124023 C10.29178173 24.00707906 10.283381 27.24188015 10.26369596 30.47766113 C10.2472844 33.86792934 10.25612581 37.25814626 10.26121521 40.6484375 C10.26573342 46.3412797 10.24988371 52.03379303 10.22192383 57.7265625 C10.18987275 64.30291802 10.18988829 70.8786805 10.2071386 77.45507812 C10.223017 83.78816138 10.21626182 90.12102776 10.19920158 96.45410156 C10.19233913 99.14621778 10.19335511 101.83815973 10.20074654 104.53027344 C10.20619074 108.29139051 10.18584642 112.05149792 10.15844727 115.8125 C10.16497314 116.9274585 10.17149902 118.04241699 10.17822266 119.19116211 C10.08466253 126.73639541 10.08466253 126.73639541 7.71226501 130.67749023 C4.94154576 133.09676275 3.23556093 133.46826666 -0.34375 133.6953125 C-3.90610086 133.35277876 -5.80237882 131.88886252 -8.375 129.5 C-10.92898868 124.00319713 -10.66401467 118.49126857 -10.6496582 112.55688477 C-10.65476913 111.46509918 -10.65988007 110.3733136 -10.66514587 109.2484436 C-10.67902504 105.64604177 -10.6780864 102.04383161 -10.67578125 98.44140625 C-10.67966892 95.93326242 -10.68400374 93.42511925 -10.68876648 90.91697693 C-10.69622496 85.66232681 -10.6960786 80.40772614 -10.69067383 75.15307617 C-10.68463408 69.09090636 -10.69694907 63.02896864 -10.7182439 56.96683842 C-10.73802162 51.1202303 -10.74102925 45.27371277 -10.73750877 39.42707634 C-10.73802182 36.94599805 -10.74325643 34.46491604 -10.75332069 31.98385811 C-10.76567207 28.51322728 -10.75890077 25.04313218 -10.74731445 21.57250977 C-10.75495819 20.55046951 -10.76260193 19.52842926 -10.77047729 18.47541809 C-10.72200694 11.89862007 -9.9753312 7.00541886 -5.9609375 1.59375 C-3.89089694 0.16613582 -2.50447685 0.03419081 0 0 Z " fill="#000000" transform="translate(209.375,236.5)"/>
</svg>
