<?xml version="1.0" standalone="no"?>
<!DOCTYPE svg PUBLIC "-//W3C//DTD SVG 20010904//EN"
 "http://www.w3.org/TR/2001/REC-SVG-20010904/DTD/svg10.dtd">
<svg version="1.0" xmlns="http://www.w3.org/2000/svg"
 width="512.000000pt" height="512.000000pt" viewBox="0 0 512.000000 512.000000"
 preserveAspectRatio="xMidYMid meet">

<g transform="translate(0.000000,512.000000) scale(0.100000,-0.100000)"
fill="#000000" stroke="none">
<path d="M2015 5100 c-137 -54 -195 -160 -195 -362 l0 -68 155 0 155 0 0 70 0
70 430 0 430 0 0 -70 0 -70 156 0 157 0 -5 113 c-7 167 -50 248 -168 309 l-45
23 -510 2 c-484 2 -513 1 -560 -17z"/>
<path d="M825 4351 c-46 -11 -91 -38 -113 -66 -22 -27 -142 -376 -142 -410 0
-35 35 -88 71 -107 32 -17 112 -18 1917 -18 1616 0 1888 2 1917 14 40 17 75
68 75 111 0 41 -106 356 -133 396 -29 43 -65 68 -113 79 -46 11 -3435 11
-3479 1z"/>
<path d="M1044 3421 c-50 -30 -64 -58 -64 -125 0 -133 240 -3022 255 -3071 21
-69 62 -124 119 -163 98 -65 40 -63 1232 -60 l1079 3 47 22 c70 32 131 94 162
164 27 60 29 72 152 1596 l124 1536 -20 43 c-39 80 93 74 -1572 74 -1442 0
-1484 -1 -1514 -19z m676 -349 c44 -22 77 -71 85 -125 3 -23 39 -594 80 -1269
82 -1337 81 -1263 24 -1315 -75 -69 -193 -49 -238 40 -20 39 -26 115 -97 1272
-42 677 -74 1251 -71 1276 9 109 119 171 217 121z m928 -9 c14 -10 35 -32 46
-47 21 -27 21 -30 21 -1311 0 -1281 0 -1284 -21 -1311 -31 -43 -67 -65 -112
-71 -57 -8 -121 25 -150 76 l-22 39 0 1267 0 1267 21 38 c30 54 82 82 142 77
27 -2 60 -13 75 -24z m910 0 c48 -36 65 -78 64 -154 -4 -191 -144 -2468 -153
-2492 -26 -64 -110 -107 -179 -92 -44 10 -98 60 -110 103 -8 28 7 334 64 1289
62 1045 78 1258 92 1288 15 33 48 64 84 78 29 12 111 0 138 -20z"/>
</g>
</svg>
