<?xml version="1.0" standalone="no"?>
<!DOCTYPE svg PUBLIC "-//W3C//DTD SVG 20010904//EN"
 "http://www.w3.org/TR/2001/REC-SVG-20010904/DTD/svg10.dtd">
<svg version="1.0" xmlns="http://www.w3.org/2000/svg"
 width="360.000000pt" height="360.000000pt" viewBox="0 0 360.000000 360.000000"
 preserveAspectRatio="xMidYMid meet">

<g transform="translate(0.000000,360.000000) scale(0.100000,-0.100000)"
fill="#000000" stroke="none">
<path d="M1655 3360 c-102 -7 -214 -25 -250 -40 -11 -4 -54 -18 -95 -31 -89
-26 -254 -102 -336 -154 -196 -124 -383 -310 -506 -505 -53 -82 -123 -234
-153 -330 -15 -47 -31 -94 -36 -105 -13 -33 -30 -142 -40 -270 -13 -162 9
-440 40 -520 4 -11 20 -58 35 -104 112 -341 357 -649 667 -838 144 -89 367
-177 514 -204 95 -18 515 -18 610 0 147 27 370 115 514 204 105 64 171 116
274 216 189 184 313 382 400 641 54 161 61 218 61 480 0 262 -7 319 -61 480
-87 259 -210 456 -400 641 -180 176 -374 294 -593 364 -47 15 -92 31 -100 35
-9 4 -40 11 -70 14 -30 4 -68 11 -85 16 -42 12 -271 18 -390 10z m315 -220
c145 -20 267 -54 378 -105 29 -14 55 -25 57 -25 16 0 199 -123 270 -181 71
-59 115 -106 241 -262 8 -9 14 -19 14 -22 0 -3 18 -34 40 -70 22 -36 40 -67
40 -70 0 -2 11 -28 25 -57 113 -244 143 -536 86 -837 -12 -66 -53 -187 -86
-259 -14 -29 -25 -55 -25 -57 0 -3 -25 -46 -56 -95 -118 -192 -262 -336 -454
-454 -49 -31 -92 -56 -95 -56 -2 0 -28 -11 -57 -25 -323 -150 -747 -153 -1078
-9 -189 83 -379 223 -500 370 -58 70 -180 253 -180 269 0 2 -11 28 -25 57
-113 244 -143 535 -86 837 10 52 51 182 71 226 5 11 18 40 29 65 12 25 34 68
51 95 16 28 33 57 37 65 3 8 9 17 13 20 3 3 17 21 30 40 67 96 152 179 320
314 9 7 22 15 30 19 8 4 38 21 65 37 28 17 59 34 70 39 11 5 41 18 65 29 105
49 224 82 360 101 77 11 273 12 350 1z"/>
<path d="M1732 2911 c-82 -21 -151 -116 -152 -207 -1 -165 161 -271 313 -204
158 70 171 298 22 390 -37 23 -132 34 -183 21z"/>
<path d="M1695 2221 c-46 -28 -87 -77 -102 -118 -10 -30 -13 -168 -13 -645 1
-677 -2 -646 71 -717 104 -100 280 -70 345 59 l23 45 0 610 c1 483 -2 618 -12
648 -15 43 -68 101 -111 122 -44 22 -163 20 -201 -4z"/>
</g>
</svg>
