<?xml version="1.0" standalone="no"?>
<!DOCTYPE svg PUBLIC "-//W3C//DTD SVG 20010904//EN"
 "http://www.w3.org/TR/2001/REC-SVG-20010904/DTD/svg10.dtd">
<svg version="1.0" xmlns="http://www.w3.org/2000/svg"
 width="360.000000pt" height="360.000000pt" viewBox="0 0 360.000000 360.000000"
 preserveAspectRatio="xMidYMid meet">

<g transform="translate(0.000000,360.000000) scale(0.100000,-0.100000)"
fill="#000000" stroke="none">
<path d="M1700 3131 c-55 -17 -108 -52 -153 -100 -47 -50 -86 -119 -87 -152 0
-11 -33 -32 -92 -61 -173 -83 -308 -214 -392 -378 -91 -178 -106 -259 -106
-584 0 -410 -27 -601 -105 -757 -35 -67 -115 -144 -174 -165 -94 -34 -126
-103 -75 -163 l26 -31 152 0 c182 0 246 -7 246 -27 0 -36 55 -125 105 -172 71
-64 141 -91 240 -91 159 0 297 98 340 243 l12 42 717 5 718 5 19 24 c23 28 25
88 4 118 -8 12 -38 29 -65 38 -111 37 -193 137 -237 288 -40 136 -53 272 -62
633 -8 331 -9 341 -35 424 -37 113 -108 246 -173 326 -71 86 -186 175 -288
225 -79 38 -84 42 -101 88 -36 101 -116 181 -217 215 -50 17 -172 20 -217 7z
m176 -196 c17 -13 10 -14 -73 -15 -51 0 -93 2 -93 5 0 25 136 33 166 10z m142
-235 c257 -72 436 -248 508 -498 13 -46 17 -116 20 -352 3 -284 8 -408 20
-477 l6 -33 -767 0 -768 0 7 73 c4 39 11 225 16 412 8 376 11 394 77 525 45
89 166 216 256 269 72 42 172 79 262 97 94 18 268 11 363 -16z m604 -1577 c26
-67 72 -159 86 -175 8 -10 11 -19 6 -19 -23 -4 -1810 -5 -1821 -1 -7 2 -1 19
17 45 15 23 41 73 56 110 l28 67 808 0 808 0 12 -27z m-1187 -393 c5 -8 -53
-64 -82 -79 -28 -14 -108 -14 -136 0 -33 17 -77 61 -77 77 0 11 27 13 146 11
80 -2 147 -6 149 -9z"/>
</g>
</svg>
