<?xml version="1.0" standalone="no"?>
<!DOCTYPE svg PUBLIC "-//W3C//DTD SVG 20010904//EN"
 "http://www.w3.org/TR/2001/REC-SVG-20010904/DTD/svg10.dtd">
<svg version="1.0" xmlns="http://www.w3.org/2000/svg"
 width="840.000000pt" height="749.000000pt" viewBox="0 0 840.000000 749.000000"
 preserveAspectRatio="xMidYMid meet">

<g transform="translate(0.000000,749.000000) scale(0.100000,-0.100000)"
fill="#000000" stroke="none">
<path d="M7305 7070 c-146 -31 -261 -97 -380 -215 -100 -100 -154 -189 -196
-325 -30 -97 -33 -268 -6 -380 l18 -74 -27 -21 c-49 -36 -584 -404 -761 -523
l-173 -115 -57 32 c-188 103 -282 131 -443 131 -220 0 -361 -62 -542 -238
l-87 -84 -373 126 c-206 70 -380 131 -387 135 -6 4 -19 52 -27 107 -38 257
-121 418 -277 540 -119 93 -244 144 -398 164 -350 43 -703 -205 -796 -560 -24
-92 -23 -293 2 -378 10 -37 14 -66 9 -71 -7 -7 -448 -314 -858 -599 -49 -34
-93 -62 -97 -62 -4 0 -46 25 -95 55 -380 239 -877 101 -1073 -299 -59 -119
-75 -191 -75 -326 0 -135 16 -207 74 -325 96 -194 280 -345 490 -402 89 -24
272 -24 359 1 253 70 450 258 537 511 24 69 28 97 28 200 1 87 -4 140 -18 193
-10 40 -17 74 -15 76 2 2 126 89 274 193 423 296 672 463 690 463 10 0 57 -23
106 -51 205 -118 417 -139 633 -62 103 37 191 94 297 192 l94 88 245 -84 c135
-46 306 -105 380 -130 74 -25 136 -47 137 -48 1 0 9 -48 17 -106 40 -279 137
-448 331 -578 377 -252 895 -113 1090 292 65 137 79 243 61 479 l-8 97 29 27
c43 41 140 111 468 339 165 114 334 232 375 261 l76 52 74 -48 c150 -96 297
-137 455 -127 119 8 190 27 304 83 79 39 109 61 180 133 123 123 187 240 217
397 30 160 10 292 -67 453 -44 89 -63 116 -137 191 -96 96 -187 155 -302 196
-64 23 -95 27 -205 30 -71 2 -148 -1 -170 -6z m261 -381 c57 -18 77 -30 129
-82 36 -36 74 -87 91 -122 26 -54 29 -70 29 -155 0 -85 -3 -101 -28 -149 -16
-29 -51 -76 -78 -103 -110 -110 -267 -144 -392 -86 -80 38 -170 126 -209 206
-41 83 -45 178 -10 256 50 110 155 210 253 241 64 20 138 18 215 -6z m-4312
-759 c129 -49 236 -204 236 -345 0 -94 -58 -216 -132 -279 -77 -66 -120 -80
-243 -81 -102 0 -114 2 -163 28 -72 38 -132 100 -168 173 -26 53 -29 69 -29
159 0 87 3 107 26 156 86 183 280 261 473 189z m2171 -751 c71 -26 159 -108
193 -180 19 -39 22 -62 22 -160 0 -104 -3 -120 -26 -167 -35 -70 -98 -133
-169 -167 -49 -24 -75 -30 -151 -33 -87 -4 -95 -3 -154 27 -83 42 -124 76
-165 136 -140 206 -35 483 215 566 43 14 171 3 235 -22z m-4349 -740 c66 -25
178 -128 212 -195 46 -90 46 -218 1 -305 -32 -64 -134 -161 -204 -194 -86 -42
-186 -42 -270 -1 -80 39 -177 137 -212 213 -38 82 -37 185 0 264 47 98 144
191 235 224 58 21 172 19 238 -6z"/>
<path d="M6856 4816 c-47 -18 -101 -68 -129 -121 -20 -40 -21 -49 -24 -1015
-2 -536 0 -1468 5 -2070 7 -957 10 -1099 24 -1131 20 -46 92 -107 137 -116 48
-11 1116 -10 1164 0 43 9 109 64 135 111 16 29 17 177 20 2021 1 1095 -1 2041
-6 2103 l-9 113 -39 40 c-76 79 -32 74 -669 76 -470 2 -577 0 -609 -11z"/>
<path d="M2664 4081 l-140 -6 -52 -39 c-75 -58 -82 -82 -93 -326 -4 -113 -9
-876 -9 -1696 l0 -1492 44 -59 c60 -82 92 -99 196 -107 150 -11 1033 -9 1076
3 53 14 100 50 141 107 l33 48 0 1701 0 1701 -28 45 c-32 49 -80 89 -132 109
-27 10 -133 14 -465 15 -236 2 -493 0 -571 -4z"/>
<path d="M4737 3330 c-97 -17 -170 -89 -187 -182 -7 -36 -10 -500 -8 -1344 3
-1432 -3 -1311 70 -1383 70 -69 40 -66 602 -69 280 -1 547 1 593 7 97 10 133
32 190 115 l33 48 0 1320 0 1319 -29 42 c-48 70 -95 109 -143 118 -60 12
-1062 20 -1121 9z"/>
<path d="M423 2581 c-120 -12 -196 -85 -214 -204 -10 -73 -11 -1077 0 -1547 6
-272 10 -330 23 -356 25 -47 92 -102 135 -111 48 -10 1116 -11 1164 0 42 9
112 66 137 111 16 29 17 102 20 931 2 495 0 934 -3 974 -7 73 -8 76 -59 128
-36 39 -62 57 -91 63 -50 12 -1014 21 -1112 11z"/>
</g>
</svg>
