<?xml version="1.0" standalone="no"?>
<!DOCTYPE svg PUBLIC "-//W3C//DTD SVG 20010904//EN"
 "http://www.w3.org/TR/2001/REC-SVG-20010904/DTD/svg10.dtd">
<svg version="1.0" xmlns="http://www.w3.org/2000/svg"
 width="1200.000000pt" height="1200.000000pt" viewBox="0 0 1200.000000 1200.000000"
 preserveAspectRatio="xMidYMid meet">

<g transform="translate(0.000000,1200.000000) scale(0.100000,-0.100000)"
fill="#000000" stroke="none">
<path d="M5620 9170 c-893 -69 -1763 -323 -2670 -781 -786 -396 -1491 -879
-2240 -1533 -107 -94 -311 -286 -453 -426 l-257 -255 0 -175 0 -175 262 -260
c1223 -1211 2704 -2119 4093 -2509 618 -173 1162 -245 1755 -233 880 19 1719
225 2670 657 635 288 1417 775 2009 1250 52 41 119 95 150 119 239 190 570
489 839 758 l222 222 0 171 0 172 -232 231 c-481 480 -1006 915 -1576 1307
-245 168 -562 367 -762 477 -220 121 -290 158 -405 216 -819 409 -1640 660
-2450 748 -215 23 -755 34 -955 19z m775 -489 c377 -58 713 -181 1022 -374
690 -429 1140 -1111 1264 -1918 29 -188 32 -559 6 -742 -67 -470 -245 -904
-521 -1271 -624 -829 -1642 -1226 -2662 -1040 -1039 189 -1886 988 -2139 2019
-59 240 -69 338 -69 645 0 250 2 301 22 415 55 314 126 532 262 805 411 819
1195 1363 2124 1476 161 19 523 12 691 -15z m-2726 -518 c-240 -248 -482 -626
-619 -968 -113 -282 -190 -597 -219 -899 -14 -141 -14 -451 0 -592 67 -699
367 -1367 834 -1863 39 -41 63 -72 55 -69 -168 65 -609 278 -835 403 -641 354
-1245 781 -1850 1310 -144 125 -545 505 -545 515 0 11 400 389 545 515 724
632 1462 1132 2215 1499 204 99 456 213 475 215 5 1 -20 -29 -56 -66z m4629
57 c9 -5 76 -35 147 -66 989 -432 2057 -1167 2900 -1996 l160 -158 -160 -158
c-750 -738 -1687 -1408 -2590 -1852 -188 -92 -252 -121 -418 -191 l-67 -28 83
92 c495 550 774 1213 819 1950 53 850 -244 1693 -820 2325 -82 89 -91 102 -54
82z"/>
<path d="M5885 7264 c-301 -33 -554 -153 -766 -363 -227 -226 -351 -502 -366
-822 -17 -345 101 -662 340 -916 174 -184 391 -308 639 -365 126 -29 384 -31
505 -5 449 97 804 407 943 825 49 150 63 233 63 397 0 116 -5 173 -22 255
-120 569 -601 975 -1178 994 -65 2 -136 2 -158 0z m330 -499 c144 -42 246
-105 352 -219 207 -221 266 -542 152 -821 -68 -164 -214 -321 -371 -398 -135
-67 -198 -81 -353 -81 -150 0 -226 18 -356 85 -184 95 -310 245 -382 453 -29
85 -31 100 -32 231 0 119 4 151 23 215 80 252 249 433 493 524 136 51 320 55
474 11z"/>
</g>
</svg>
